<svg width="40" height="80" xmlns="http://www.w3.org/2000/svg">
  <g style="fill: var(--color-header-logo)" fill-rule="evenodd">
    <path d="M11.756.047a1.647 1.647 0 0 0-.359.095c-.355.164-.47.23-.598.343-.078.07-.231.202-.337.296-.16.14-.44.495-.44.561 0 .01-.06.098-.131.199a2.35 2.35 0 0 0-.45.942 2.689 2.689 0 0 1-.087.268c-.318.712-.349.819-.452 1.547l-.081.583a4.376 4.376 0 0 1-.097.504c-.096.309-.209 1.03-.284 1.812-.062.696-.096 6.762-.04 8.114.062 1.556.134 2.64.203 3.024.065.372.165.984.202 1.23.04.283.09.986.125 1.827.031.75.084 1.497.116 1.654.009.05.043.277.074.504.032.224.085.558.119.74.034.184.072.514.084.741.016.356.01.448-.05.71-.037.163-.087.34-.109.393-.022.05-.053.136-.065.19a.56.56 0 0 1-.044.125 2.186 2.186 0 0 0-.078.331 3.898 3.898 0 0 1-.346 1.093 3.07 3.07 0 0 0-.169.391c0 .022-.028.117-.059.214a5.367 5.367 0 0 0-.097.35 1.866 1.866 0 0 1-.109.315 4.55 4.55 0 0 0-.315.757c-.022.094-.072.293-.11.44a2.273 2.273 0 0 1-.13.395c-.203.387-.3.627-.35.85-.096.429-.199.753-.286.892-.05.082-.11.199-.135.258a.902.902 0 0 1-.065.142 4.37 4.37 0 0 0-.153.328c-.137.318-.187.378-.315.381-.175 0-.293-.346-.387-1.134-.093-.804-.143-1.097-.252-1.528-.063-.243-.14-.577-.172-.74-.031-.165-.075-.363-.09-.442a4.171 4.171 0 0 1-.063-.41 14.426 14.426 0 0 0-.39-1.937c-.053-.183-.15-.798-.218-1.384a3.404 3.404 0 0 0-.078-.463.35.35 0 0 1-.031-.151c0-.054-.028-.186-.06-.293a7.485 7.485 0 0 1-.255-1.144c-.034-.227-.072-.482-.087-.567a10.974 10.974 0 0 1-.082-.536 6.578 6.578 0 0 0-.093-.52 11.385 11.385 0 0 1-.087-.33c-.05-.205-.122-.48-.194-.725a4.594 4.594 0 0 1-.078-.504c-.05-.52-.175-1.302-.218-1.355a1.215 1.215 0 0 1-.063-.237 1.208 1.208 0 0 0-.071-.268c-.044-.081-.144-.567-.178-.866-.075-.68-.097-.832-.122-.88a.813.813 0 0 1-.05-.191 1.32 1.32 0 0 0-.093-.3 1.89 1.89 0 0 1-.097-.252 1.238 1.238 0 0 0-.081-.233 1.545 1.545 0 0 1-.09-.347 1.782 1.782 0 0 0-.06-.27 1.693 1.693 0 0 1-.059-.272c-.037-.233-.156-.507-.278-.636-.124-.132-.277-.12-.43.038a1.127 1.127 0 0 0-.293 1.043c.018.094.062.327.096.52.035.189.072.368.088.393.015.029.043.136.065.237.025.104.053.201.063.22.043.057.215.64.25.842.018.11.046.268.062.356.018.085.053.362.078.614.028.252.062.492.078.536.015.044.05.198.08.346.029.149.06.28.075.3.013.016.041.123.063.236.022.114.053.22.065.236.013.02.069.347.122.725.119.873.178 1.257.215 1.418.09.381.128.526.184.725.094.346.128.513.162.803.047.404.153 1.062.21 1.292.024.114.065.296.09.41.025.113.06.24.078.28.075.174.18.794.243 1.412a5 5 0 0 0 .066.457c.106.479.2.85.25 1.002.074.233.193.914.249 1.434.047.428.078.595.184.992.053.199.118.46.146.58.025.12.053.23.063.242.006.013.056.334.106.713.137 1.011.15 1.096.252 1.474.231.876.25.983.253 1.465.003.375-.006.498-.06.681a2.865 2.865 0 0 1-.096.284c-.053.104-.221.62-.259.8a3.79 3.79 0 0 1-.293.85 2.526 2.526 0 0 0-.143.347c-.022.08-.057.17-.078.205a1.18 1.18 0 0 0-.078.284c-.02.12-.047.233-.06.252-.009.016-.046.1-.078.189-.03.085-.109.265-.171.394-.066.129-.128.287-.14.346a.956.956 0 0 1-.063.19c-.019.044-.053.17-.072.283-.03.176-.302.86-.38.961-.013.016-.063.23-.11.473-.09.491-.24 1.02-.33 1.169a1.057 1.057 0 0 0-.094.268.753.753 0 0 1-.062.204c-.016.02-.047.167-.072.331-.071.467-.15.766-.3 1.147-.124.315-.27.854-.299 1.103a2.672 2.672 0 0 1-.078.375c-.034.1-.059.205-.059.233 0 .025-.04.139-.093.25-.05.106-.094.213-.094.23 0 .018-.028.113-.062.213-.066.186-.163.621-.219 1-.018.119-.046.232-.059.251a.835.835 0 0 0-.065.19 2.685 2.685 0 0 1-.1.292c-.103.237-.206.735-.24 1.157a15.54 15.54 0 0 1-.063.614c-.078.555-.1.684-.128.772-.187.634-.24.838-.284 1.163-.071.53-.09.69-.121 1.137-.031.47-.147 1.144-.234 1.387a1.99 1.99 0 0 0-.078.33c-.016.114-.044.275-.06.363-.015.085-.043.498-.062.914-.018.416-.05.983-.065 1.26-.094 1.46-.094 6.661-.003 7.304.018.126.056.42.084.652.028.234.062.438.075.457.012.016.04.139.062.268.022.13.05.252.066.271.053.066.156.788.2 1.4.052.683.074.881.108.929.013.015.04.123.063.236.018.113.062.262.093.33.028.07.072.206.094.3.022.095.053.19.065.208.016.02.063.315.106.662.1.781.131.923.294 1.336.177.444.234.646.284 1.015.03.22.233.81.333.964.025.04.066.148.09.236.029.091.066.205.091.258a2 2 0 0 1 .081.253c.022.085.094.252.16.368.19.34.361.69.42.86.047.13.443.779.509.835.012.01.078.126.15.259.071.132.184.296.25.362.065.066.158.177.208.246.119.167.206.249.434.406.103.07.23.174.283.227.05.054.125.117.163.136.059.031.071.063.071.176V80H6.31v-.135c0-.13.01-.14.25-.334a3.29 3.29 0 0 0 .346-.316c.053-.063.256-.28.449-.482.196-.201.39-.422.43-.488.044-.066.113-.158.153-.205.084-.088.275-.362.275-.394 0-.01.053-.082.118-.164.119-.148.403-.693.49-.948a.815.815 0 0 1 .09-.19c.072-.078.322-.727.347-.897.009-.088.04-.202.062-.252.022-.054.066-.18.094-.284.028-.104.071-.227.096-.274a1.4 1.4 0 0 0 .088-.284l.09-.387c.05-.195.115-.59.181-1.056.019-.148.1-.466.178-.709.078-.242.153-.532.165-.646.06-.482.187-1.48.215-1.67.085-.586.125-.822.14-.847.01-.016.038-.262.063-.545.025-.284.06-.64.078-.794.037-.334.115-1.374.162-2.115.038-.64.01-4.515-.037-5.262-.034-.532-.106-1.134-.156-1.292a4.191 4.191 0 0 1-.078-.41c-.028-.173-.069-.434-.094-.582a18.955 18.955 0 0 1-.171-1.292 7.066 7.066 0 0 0-.09-.662 1.143 1.143 0 0 1-.044-.236 6.007 6.007 0 0 0-.113-.552c-.159-.67-.187-.84-.284-1.67a24.45 24.45 0 0 0-.137-1.008l-.096-.441c-.029-.13-.078-.35-.113-.488-.08-.344-.112-.533-.2-1.245-.121-.97-.127-.999-.311-1.749a11.68 11.68 0 0 1-.265-1.654c-.044-.438-.088-.69-.266-1.45a11.79 11.79 0 0 1-.171-.85c-.019-.148-.056-.397-.078-.552-.025-.157-.06-.413-.078-.567a9.316 9.316 0 0 0-.218-1.119 9.437 9.437 0 0 1-.25-1.386 5.023 5.023 0 0 0-.05-.39c-.062-.2-.178-1.075-.19-1.403a2.14 2.14 0 0 1 .069-.74c.043-.193.102-.407.127-.476.025-.07.057-.19.072-.268.078-.39.194-.725.356-1.024.09-.167.209-.504.24-.696.019-.101.047-.215.06-.25.015-.034.043-.113.065-.173.062-.18.159-.39.202-.44a.863.863 0 0 0 .094-.221c.028-.095.072-.224.094-.287a2 2 0 0 0 .078-.315c.018-.11.062-.262.093-.331.034-.073.069-.173.081-.22.013-.051.063-.161.113-.243a1.77 1.77 0 0 0 .146-.372c.034-.12.069-.23.078-.246.013-.016.038-.145.062-.283.047-.262.185-.6.297-.719a.377.377 0 0 1 .34-.088c.112.025.2.139.271.362.031.095.066.186.078.205.022.032.097.501.156.993.016.129.044.463.062.74.041.659.122 1.122.325 1.843.103.372.13.542.206 1.371.053.58.1.97.13 1.103l.076.347a2.3 2.3 0 0 0 .09.315c.081.182.2.76.234 1.134.019.208.047.441.062.52.016.079.038.211.047.3.022.17.11.494.21.771.118.334.186.653.258 1.213.11.835.137.996.203 1.135.031.07.068.167.08.22.013.05.054.174.094.268.063.158.122.441.156.772.05.46.116.886.15.986.025.063.053.18.066.259.012.079.05.201.08.27.032.073.072.2.091.284.019.085.053.211.078.28.025.07.06.269.078.442.053.498.16 1.257.187 1.308.013.025.035.11.044.189.012.078.05.233.081.346.19.646.24.961.28 1.765.02.356.048.715.063.803.016.085.038.255.047.378.025.28.081.586.203 1.103.053.224.115.514.14.643.069.347.206.605.455.863.331.344.347.416.284 1.409a48.77 48.77 0 0 0-.053 1.591c-.022 1.008-.087 1.9-.19 2.464-.025.155-.062.369-.081.482a1.82 1.82 0 0 1-.056.268c-.056.126-.187 1.056-.234 1.639-.028.327-.06.64-.075.693-.016.05-.037.157-.047.236a2.536 2.536 0 0 1-.08.331c-.12.369-.216.76-.257 1.04-.05.362-.05 1.49.003 1.686.057.201.234.564.347.693.361.419.396.454.592.548.181.085.234.098.484.098.262-.003.296-.01.505-.12.35-.18.817-.633 1.114-1.071.13-.196.237-.369.237-.388 0-.022.059-.12.134-.22.075-.104.153-.237.178-.297.071-.186.346-.7.461-.863a1.59 1.59 0 0 0 .162-.315c.063-.183.306-.662.443-.863.047-.076.113-.221.14-.325.029-.1.06-.186.072-.186.013 0 .053-.066.09-.151.038-.082.088-.177.107-.211.022-.035.075-.126.122-.205.046-.079.106-.214.134-.3.087-.261.287-.658.38-.759.05-.05.169-.16.265-.242.094-.082.181-.158.19-.17.029-.029.178.078.178.129 0 .022.02.082.044.132.053.107.162 1.059.19 1.635.063 1.37.103 3.463.088 4.412-.016 1.052-.016 1.074.053 1.307.121.4.2.536.458.807.293.306.328.33.649.438.206.07.287.082.471.07.303-.023.63-.127.795-.253.075-.06.181-.129.231-.157.222-.114.855-.813 1.086-1.2.053-.09.13-.206.174-.26.144-.176.19-.245.19-.273 0-.016.06-.117.135-.224a1.95 1.95 0 0 0 .178-.3c.021-.056.093-.17.155-.252a2.91 2.91 0 0 0 .231-.375c.063-.129.14-.261.172-.293.031-.034.097-.141.15-.242.05-.098.127-.237.174-.306a1.81 1.81 0 0 0 .147-.312.903.903 0 0 1 .106-.236 2.71 2.71 0 0 0 .159-.318c.065-.148.131-.284.143-.303.016-.019.05-.113.078-.205.025-.094.066-.214.09-.264.023-.054.073-.174.11-.268.037-.095.09-.218.122-.271a1.51 1.51 0 0 0 .109-.268c.031-.095.065-.198.081-.233a9.28 9.28 0 0 0 .143-.378 2.24 2.24 0 0 1 .138-.331.693.693 0 0 0 .075-.173c.028-.089.071-.202.096-.253.075-.167.172-.44.172-.488 0-.053.25-.734.277-.756.032-.025.244-.624.287-.804.04-.18.272-.835.31-.882.012-.019.055-.139.093-.268.15-.52.19-.658.265-.93.04-.157.125-.425.184-.598.11-.321.159-.523.271-1.134.035-.193.078-.375.094-.41.028-.06.056-.189.165-.725.116-.57.187-1.084.234-1.67.05-.63.122-1.156.268-1.969.069-.381.131-.79.222-1.434.006-.053.04-.47.075-.93.068-.91.137-1.565.19-1.811.019-.088.047-.236.06-.33l.077-.458c.125-.747.19-1.411.25-2.584.025-.485.059-.973.075-1.087.018-.113.046-.318.068-.457.019-.138.06-.35.094-.472.153-.599.268-1.677.34-3.23.05-1.011.106-1.534.224-2 .016-.07.056-.32.09-.552.032-.233.073-.526.091-.646.035-.243.103-1.333.156-2.442.044-.968.116-1.95.15-2.064.019-.054.053-.265.084-.473a8.59 8.59 0 0 1 .081-.504c.028-.126.103-.838.153-1.45.013-.173.04-.711.06-1.197.037-.948.068-1.408.149-2.306.078-.848.019-1.138-.296-1.472a.946.946 0 0 0-.693-.312.682.682 0 0 0-.312.057c-.224.117-.655.599-.655.734a.767.767 0 0 1-.062.18c-.04.088-.081.293-.11.542-.068.617-.077.778-.124 2.168-.025.709-.06 1.37-.078 1.465-.031.183-.122.743-.218 1.37-.11.69-.119.785-.219 2.175-.018.242-.046.879-.065 1.418a23.239 23.239 0 0 1-.06 1.213c-.04.362-.15 1.018-.18 1.103a3.777 3.777 0 0 0-.081.425c-.028.189-.066.41-.082.488a7.218 7.218 0 0 0-.062.536l-.062.693c-.016.164-.038.435-.047.599a4.35 4.35 0 0 1-.187 1.071c-.187.653-.197.731-.312 2.001-.084.958-.116 1.172-.2 1.465-.206.712-.265 1.09-.396 2.427a9.02 9.02 0 0 1-.137.898c-.05.208-.134.554-.184.772-.053.217-.11.535-.128.709-.044.41-.156 1.332-.175 1.433-.028.136-.171.734-.218.898-.06.211-.128.58-.197 1.056-.109.74-.165 1.055-.224 1.245a7.722 7.722 0 0 0-.094.356 1.097 1.097 0 0 1-.078.252.39.39 0 0 0-.043.148c0 .034-.022.154-.047.268-.028.113-.075.352-.11.535-.084.467-.14.703-.23.993a3.751 3.751 0 0 0-.081.277.5.5 0 0 1-.044.126 3.732 3.732 0 0 0-.125.448c-.206.872-.243 1.011-.312 1.162a1.62 1.62 0 0 0-.096.271c-.013.06-.05.16-.081.224a1.412 1.412 0 0 0-.09.268c-.023.085-.05.183-.066.217a2.847 2.847 0 0 0-.122.48c0 .021-.05.141-.11.264a2 2 0 0 0-.108.258c0 .016-.038.101-.081.19a1.71 1.71 0 0 0-.113.336.706.706 0 0 1-.056.205c-.012.016-.047.11-.075.205-.03.095-.109.287-.171.425a4.572 4.572 0 0 0-.16.372c-.021.07-.055.161-.08.205a.373.373 0 0 0-.044.136c0 .107-.222.661-.378.951a4.698 4.698 0 0 0-.184.489c-.14.434-.221.646-.252.668-.022.015-.069.116-.278.582-.031.07-.072.199-.093.287-.06.268-.256.41-.387.28a.5.5 0 0 1-.081-.182l-.066-.243c-.015-.06-.043-.457-.062-.882-.05-1.254-.162-2.376-.268-2.647a2.097 2.097 0 0 1-.072-.3 1.507 1.507 0 0 0-.066-.27c-.021-.044-.093-.577-.184-1.358a1.783 1.783 0 0 0-.087-.378 2.38 2.38 0 0 1-.097-.25 1.448 1.448 0 0 0-.153-.283 1.942 1.942 0 0 1-.162-.277c-.078-.199-.362-.448-.686-.605-.424-.208-.599-.243-.886-.173-.25.06-.371.129-.67.393-.131.117-.222.224-.26.319-.034.078-.08.189-.108.249a2.005 2.005 0 0 0-.088.378c-.056.394-.146.67-.277.86a1.066 1.066 0 0 0-.113.189c0 .013-.04.113-.09.22-.047.11-.119.303-.16.432a.965.965 0 0 1-.13.293c-.09.092-.309.58-.375.845-.046.192-.09.274-.237.463-.299.388-.343.46-.365.608-.034.233-.184.507-.277.504-.063-.003-.156-.167-.178-.312-.028-.189.022-.611.097-.816a2.94 2.94 0 0 0 .109-.403c.069-.334.165-1.787.218-3.337.025-.728.06-1.43.078-1.56l.066-.567c.018-.183.047-.4.062-.488.034-.17.081-.555.181-1.402.072-.618.147-1.756.193-2.962.032-.845.078-1.333.184-1.985.147-.905.147-1.437-.003-2.001a20.356 20.356 0 0 1-.096-.41c-.032-.16-.15-.397-.318-.643-.122-.17-.503-.425-.712-.476-.174-.044-.689-.025-.87.029-.062.019-.224.135-.359.255-.283.255-.383.28-.527.135-.109-.113-.168-.233-.237-.482a11.153 11.153 0 0 0-.103-.346 5.37 5.37 0 0 1-.237-.977 9.217 9.217 0 0 0-.062-.457 12.021 12.021 0 0 1-.063-.416c-.034-.255-.13-.655-.296-1.222a4.53 4.53 0 0 1-.184-.93c-.065-.517-.128-.882-.184-1.078a13.258 13.258 0 0 1-.115-.403c-.21-.74-.206-.728-.278-1.544a11.455 11.455 0 0 0-.334-1.834c-.065-.246-.103-.447-.2-1.112a8.447 8.447 0 0 1-.05-.52c-.009-.18-.03-.4-.046-.488-.016-.085-.047-.278-.072-.426-.04-.242-.093-.494-.227-1.055a7.773 7.773 0 0 1-.166-1.056c-.093-1.074-.184-1.73-.315-2.284-.146-.63-.184-.835-.215-1.23-.062-.79-.025-2.246.062-2.457.032-.082.21-.614.272-.82.075-.251.1-.365.134-.566.062-.41.156-.779.23-.943.044-.094.082-.189.082-.207 0-.016.012-.057.031-.089.05-.091.178-.573.218-.825.056-.36.187-.845.29-1.068a4.91 4.91 0 0 0 .262-.87c.072-.533.138-.791.256-1.071a4.62 4.62 0 0 0 .225-.738c.028-.167.04-.258.118-.885.063-.485.106-.706.2-.961.228-.643.253-.772.318-1.655.078-1.036.147-1.537.23-1.698.016-.028.05-.157.079-.287.025-.129.062-.296.078-.368.072-.29.156-1.17.19-1.963.034-.876.1-1.576.178-1.922.13-.596.162-.927.184-2.017.025-1.106-.01-1.667-.131-2.171-.1-.413-.16-.75-.2-1.128a10.636 10.636 0 0 0-.059-.473c-.031-.195-.253-.816-.346-.97a1.062 1.062 0 0 1-.094-.252c-.04-.164-.174-.473-.24-.545-.022-.023-.04-.057-.04-.076a.903.903 0 0 0-.15-.211c-.081-.098-.197-.24-.256-.318a4.763 4.763 0 0 0-.187-.227c-.119-.13-.608-.363-.845-.4a3.505 3.505 0 0 0-1.008.015Zm.596 2.222c.159.088.175.104.271.242.1.148.156.366.206.794.04.375.165 1.217.234 1.592.056.296.062 1.323.016 1.802-.016.17-.053.592-.078.939-.028.347-.063.715-.078.82-.02.103-.047.522-.063.929-.078 1.742-.112 2.038-.333 2.845-.113.422-.213 1.131-.262 1.913-.044.69-.128 1.213-.225 1.408a1.424 1.424 0 0 0-.084.262 1.234 1.234 0 0 1-.072.233c-.034.072-.128.658-.193 1.241-.05.442-.072.57-.11.621a.517.517 0 0 0-.046.142c-.013.06-.075.224-.14.362-.154.319-.269.621-.331.857-.044.177-.169.356-.247.356-.018 0-.065-.056-.103-.122-.112-.202-.162-.675-.193-1.894a242.19 242.19 0 0 0-.081-2.332c-.025-.668-.06-1.531-.075-1.922-.066-1.68-.013-4.153.143-6.586.066-1.052.088-1.232.216-1.704.103-.391.165-.634.234-.91.012-.06.056-.26.093-.442.06-.29.184-.646.247-.693.009-.01.062-.098.112-.199.053-.1.115-.208.14-.236.025-.028.075-.098.106-.148a.773.773 0 0 1 .265-.243c.081-.038.3 0 .43.073ZM6.507 41.785c.106.186.165.4.209.734.068.523.155.99.227 1.23.125.409.184.727.26 1.322.12 1.015.164 1.302.214 1.45.025.07.06.211.081.315.02.104.047.202.06.22.012.016.04.117.062.221.019.104.047.23.062.284.016.05.05.315.078.583.025.268.06.557.078.646.016.085.05.293.078.457.047.277.169.803.234 1.024.025.085.063.29.156.882.016.104.05.372.078.599.078.686.103.828.216 1.241.152.567.224.964.315 1.736.074.652.109.851.23 1.402.197.87.244 1.128.284 1.623.019.233.05.476.066.539.015.063.028.164.028.22 0 .108.1.725.153.958.015.07.043.268.065.442l.062.551c.02.13.054.627.082 1.103.028.476.056.917.065.977.031.223.016 3.674-.016 4.001-.018.183-.05.672-.068 1.087a14.91 14.91 0 0 1-.063.961c-.015.114-.053.375-.08.583-.029.208-.063.4-.075.426a3.568 3.568 0 0 0-.075.44c-.028.218-.066.486-.081.6-.02.113-.053.576-.078 1.033-.028.457-.063.864-.078.908a.472.472 0 0 0-.032.157c0 .079-.159.615-.234.791-.024.057-.059.199-.077.315-.06.385-.2.964-.25 1.034a.463.463 0 0 0-.047.132.644.644 0 0 1-.087.205c-.038.057-.116.23-.175.387-.06.155-.115.29-.128.3a.705.705 0 0 0-.071.167 1.336 1.336 0 0 1-.169.312 5.98 5.98 0 0 0-.327.586c-.206.416-.272.517-.45.721-.05.057-.196.23-.324.391-.274.344-.418.495-.546.586-.44.309-.723.325-1.098.054a1.96 1.96 0 0 1-.552-.564c-.034-.05-.072-.107-.087-.126-.147-.186-.21-.3-.437-.779a.347.347 0 0 1-.025-.097c0-.026-.04-.13-.09-.23a5.188 5.188 0 0 1-.403-1.069c-.096-.38-.19-.705-.224-.765-.05-.092-.156-.51-.219-.857-.184-1.05-.302-1.61-.386-1.875a3.072 3.072 0 0 1-.078-.441c-.022-.174-.05-.422-.066-.552-.015-.129-.043-.406-.062-.614a11.198 11.198 0 0 0-.081-.63 156.39 156.39 0 0 0-.09-.567c-.026-.174-.085-.514-.125-.757-.044-.242-.1-.589-.122-.772-.078-.583-.128-2.272-.128-4.411 0-2.092.022-2.72.128-3.435l.075-.535c.015-.114.05-.363.078-.552.065-.453.162-1.528.206-2.237.074-1.267.152-1.742.418-2.52.05-.155.14-.69.14-.848 0-.06.012-.174.031-.246.016-.076.044-.303.062-.504.032-.34.144-.86.262-1.223.075-.24.147-.567.206-.945.09-.592.181-.97.278-1.175a2.66 2.66 0 0 0 .143-.4c.028-.11.063-.227.078-.253.016-.028.05-.189.078-.362.063-.384.163-.82.219-.945.209-.473.243-.59.33-1.056.032-.17.097-.5.156-.788.016-.078.056-.198.088-.267.034-.07.084-.205.115-.3a.985.985 0 0 1 .081-.208c.028-.038.09-.337.165-.797.053-.324.188-.778.262-.885.07-.101.2-.441.25-.646.084-.356.106-.42.197-.624.121-.265.2-.284.315-.079Z" fill-rule="nonzero"/>
    <path d="M33.213 62.622a6.69 6.69 0 0 1-.462.123.868.868 0 0 0-.253.174 2.367 2.367 0 0 1-.318.242c-.243.145-.333.255-.415.514-.04.126-.106.28-.146.34-.14.208-.131.542.022.88.15.33.184.516.218 1.146.056.99.012 1.226-.262 1.456-.069.057-.14.12-.16.139-.096.094-.392.201-.557.201-.066 0-.21-.028-.322-.066-.165-.053-.237-.1-.38-.249-.097-.1-.24-.22-.318-.268-.125-.078-.166-.088-.396-.085-.375.007-.733.082-.942.202a2.598 2.598 0 0 0-.397.321 5.06 5.06 0 0 1-.32.303c-.194.148-.25.214-.332.381-.071.139-.08.186-.059.293.031.164.031.841 0 1.17-.022.232-.018.264.056.428.097.208.284.397.521.52.14.075.206.09.403.09.252 0 .315-.027.57-.267.247-.227.344-.261.724-.265.452-.003.59.041.852.271.112.101.28.221.377.265.315.148.393.195.524.325.1.094.175.132.306.16.2.041.411.155.499.268.268.347.365.394.67.337a1.17 1.17 0 0 1 .393 0c.122.02.262.026.312.013.053-.016.181-.117.31-.252.22-.233.352-.306.617-.35.162-.025.312-.17.399-.387a1.67 1.67 0 0 1 .218-.363c.222-.28.31-.482.31-.721 0-.126.02-.246.058-.331.069-.152.266-.31.453-.36.28-.078.399-.138.514-.255.069-.066.234-.176.371-.242.437-.218.886-.646.942-.902.013-.06.013-.337 0-.62-.034-.652-.084-.838-.308-1.084a2.287 2.287 0 0 1-.328-.526c-.093-.196-.221-.413-.29-.486-.168-.186-.18-.201-.25-.359a1.683 1.683 0 0 0-.261-.346 2.867 2.867 0 0 1-.247-.28 1.504 1.504 0 0 0-.412-.41 1.85 1.85 0 0 1-.38-.306c-.078-.079-.293-.199-.362-.199-.062 0-.268-.138-.455-.308-.247-.227-.315-.25-.824-.268a5.332 5.332 0 0 0-.483-.007ZM38.088 74.536c-.05.025-.087.06-.087.076 0 .019-.128.16-.287.321l-.287.29-.007.552-.003.554.116.11c.23.218.424.407.524.514.109.12.265.164.446.13.371-.07.711-.247.817-.423.025-.044.144-.186.262-.318.29-.328.303-.344.362-.498.068-.167.072-.28.022-.52-.066-.318-.294-.68-.428-.68-.021 0-.04-.013-.04-.026 0-.016-.075-.05-.162-.075-.225-.07-1.123-.073-1.248-.007Z"/>
  </g>
</svg>
